<svg id="Ebene_1" data-name="Ebene 1" xmlns="http://www.w3.org/2000/svg" viewBox="0 0 184 77"><defs><style>.cls-1{fill:#2a95f2;}</style></defs><path class="cls-1" d="M46.11,63.75A24.31,24.31,0,0,1,46,15.14c5.61,0,12.78,4.9,12.78,4.9-11.17,9.35-11.13,30.48,2,39.78C60.74,59.82,51.66,63.74,46.11,63.75Z"/><path class="cls-1" d="M78,63.55A24.26,24.26,0,0,1,77.94,15c5.62,0,14.32,5.85,14.32,5.85C82.59,30.62,80.87,46,91.85,57.64,91.85,57.64,83.59,63.54,78,63.55Z"/><path class="cls-1" d="M98,23.3l8.29,0v2h-5.86v3.9h5v2.05h-5V37H98Z"/><path class="cls-1" d="M107.46,30.09c0-4.44,2.46-7.07,6-7.07s6.06,2.62,6.07,7.05-2.46,7.17-6,7.18S107.47,34.53,107.46,30.09Zm9.61,0c0-3.08-1.4-4.94-3.56-4.94S110,27,110,30.09s1.41,5.05,3.57,5S117.08,33.15,117.07,30.07ZM110,20.9a1.26,1.26,0,1,1,1.26,1.25A1.22,1.22,0,0,1,110,20.9Zm4.49,0a1.22,1.22,0,0,1,1.25-1.26,1.26,1.26,0,1,1-1.25,1.26Z"/><path class="cls-1" d="M122,23.25h4.63c2.85,0,5,1,5.06,4.06s-2.19,4.3-5.05,4.3h-2.19V37H122Zm4.39,6.41c1.88,0,2.9-.79,2.9-2.35s-1-2.12-2.91-2.12h-1.94v4.47Zm-.21,1.3,1.76-1.46L132.24,37H129.5Z"/><path class="cls-1" d="M134.08,23.23h3.67c4.2,0,6.69,2.25,6.7,6.8S142,36.94,137.9,37h-3.79ZM137.61,35c2.76,0,4.35-1.58,4.34-5s-1.6-4.83-4.36-4.83h-1.07l0,9.79Z"/><path class="cls-1" d="M146.87,23.2l8.27,0v2.05h-5.83v3.52h4.94V30.8h-4.94v4.07l6,0v2l-8.47,0Z"/><path class="cls-1" d="M157.83,23.18h4.63c2.86,0,5.06,1,5.07,4.06s-2.2,4.3-5.05,4.3h-2.19V36.9h-2.44Zm4.39,6.4c1.88,0,2.91-.78,2.9-2.34s-1-2.13-2.91-2.12h-1.94v4.47Zm-.2,1.3,1.76-1.45,4.3,7.46h-2.73Z"/><path class="cls-1" d="M101.05,39.38h4.23l5,15.64h-3.75l-2.06-7.92c-.44-1.56-.86-3.41-1.28-5H103c-.37,1.65-.79,3.48-1.22,5.05l-2,7.93H96.17Zm-1.66,9.17h7.53v2.75H99.4Z"/><path class="cls-1" d="M110.88,53l2-2.43a6.22,6.22,0,0,0,3.85,1.63c1.47,0,2.19-.59,2.19-1.52s-.89-1.3-2.26-1.86l-2-.86a4.56,4.56,0,0,1-3.17-4.26c0-2.59,2.31-4.66,5.56-4.67a7.25,7.25,0,0,1,5,2l-1.78,2.23a5.09,5.09,0,0,0-3.25-1.22c-1.22,0-2,.52-2,1.41s1,1.31,2.39,1.85l2,.8a4.32,4.32,0,0,1,3.12,4.25c0,2.6-2.16,4.85-5.89,4.86A8.64,8.64,0,0,1,110.88,53Z"/><path class="cls-1" d="M123.77,53l2-2.43a6.22,6.22,0,0,0,3.84,1.63c1.48,0,2.2-.59,2.2-1.51s-.89-1.3-2.26-1.86l-2-.86a4.57,4.57,0,0,1-3.16-4.26c0-2.59,2.31-4.67,5.56-4.68a7.29,7.29,0,0,1,5,2l-1.78,2.24A5.05,5.05,0,0,0,130,42.09c-1.22,0-2,.51-2,1.4s1,1.31,2.39,1.85l2,.8a4.31,4.31,0,0,1,3.11,4.25c0,2.6-2.15,4.86-5.88,4.86A8.59,8.59,0,0,1,123.77,53Z"/><path class="cls-1" d="M138.07,39.31h3.54l0,15.64h-3.53Z"/><path class="cls-1" d="M144.29,53l2-2.43a6.22,6.22,0,0,0,3.84,1.63c1.48,0,2.2-.59,2.2-1.52s-.89-1.3-2.26-1.85l-2-.87a4.54,4.54,0,0,1-3.16-4.25c0-2.6,2.3-4.67,5.56-4.68a7.25,7.25,0,0,1,5,2l-1.78,2.23a5.12,5.12,0,0,0-3.25-1.21c-1.22,0-2,.51-2,1.4s1,1.31,2.4,1.85l2,.8A4.31,4.31,0,0,1,156,50.35c0,2.6-2.15,4.85-5.88,4.86A8.57,8.57,0,0,1,144.29,53Z"/><path class="cls-1" d="M161.18,42.22h-4.31v-3l12.15,0v3h-4.3l0,12.67h-3.53Z"/></svg>